<svg width="11" height="11" viewBox="0 0 11 11" fill="none" xmlns="http://www.w3.org/2000/svg">
<path d="M0.41751 0.417523C0.584502 0.250738 0.810868 0.157057 1.04688 0.157057C1.2829 0.157057 1.50927 0.250738 1.67626 0.417523L5.50001 4.24127L9.32376 0.417523C9.43262 0.300288 9.57109 0.214584 9.72457 0.169442C9.87805 0.1243 10.0409 0.121392 10.1959 0.161022C10.3509 0.200653 10.4923 0.281356 10.6053 0.394628C10.7183 0.507901 10.7986 0.649548 10.8378 0.804648C10.8775 0.95947 10.8747 1.12212 10.8298 1.27551C10.7849 1.42889 10.6995 1.56733 10.5825 1.67627L6.75876 5.50002L10.5825 9.32377C10.6997 9.43263 10.7854 9.5711 10.8306 9.72458C10.8757 9.87807 10.8786 10.0409 10.839 10.1959C10.7994 10.3509 10.7187 10.4923 10.6054 10.6053C10.4921 10.7183 10.3505 10.7986 10.1954 10.8378C10.0406 10.8775 9.87791 10.8748 9.72453 10.8298C9.57115 10.7849 9.4327 10.6995 9.32376 10.5825L5.50001 6.75877L1.67626 10.5825C1.50732 10.7398 1.28401 10.8254 1.05326 10.8214C0.82251 10.8174 0.602289 10.7241 0.438885 10.5611C0.275908 10.3977 0.182624 10.1775 0.178638 9.94677C0.174652 9.71602 0.260275 9.49271 0.41751 9.32377L4.24126 5.50002L0.41751 1.67627C0.250725 1.50928 0.157043 1.28291 0.157043 1.0469C0.157043 0.810882 0.250725 0.584516 0.41751 0.417523Z" fill="#FF3A00"/>
</svg>
