<svg width="27" height="22" viewBox="0 0 27 22" fill="none" xmlns="http://www.w3.org/2000/svg">
<g clip-path="url(#clip0_88_500)">
<path d="M8.77499 14.85C8.67416 14.85 8.57334 14.8648 8.47715 14.896C7.9304 15.0736 7.35538 15.1875 6.74999 15.1875C6.1446 15.1875 5.56959 15.0736 5.02241 14.896C4.92623 14.8648 4.82582 14.85 4.72499 14.85C2.10684 14.85 -0.01393 16.9796 -8.14093e-06 19.6012C0.00589811 20.709 0.916726 21.6 2.02499 21.6H11.475C12.5833 21.6 13.4941 20.709 13.5 19.6012C13.5139 16.9796 11.3931 14.85 8.77499 14.85ZM6.74999 13.5C8.98677 13.5 10.8 11.6868 10.8 9.45C10.8 7.21322 8.98677 5.4 6.74999 5.4C4.51321 5.4 2.69999 7.21322 2.69999 9.45C2.69999 11.6868 4.51321 13.5 6.74999 13.5ZM24.975 0H8.77499C7.65829 0 6.74999 0.938672 6.74999 2.09208V4.05C7.73802 4.05 8.65265 4.33603 9.44999 4.80094V2.7H24.3V14.85H21.6V12.15H16.2V14.85H12.9836C13.7894 15.5541 14.3809 16.4839 14.658 17.55H24.975C26.0917 17.55 27 16.6113 27 15.4579V2.09208C27 0.938672 26.0917 0 24.975 0Z" fill="white"/>
</g>
<defs>
<clipPath id="clip0_88_500">
<rect width="27" height="21.6" fill="white"/>
</clipPath>
</defs>
</svg>
